HIERARCHY
ROOT Hips
{
	OFFSET 0.000000 0.000000 0.000000
	CHANNELS 6 Xposition Yposition Zposition Zrotation Yrotation Xrotation 
	JOINT LHipJoint
	{
		OFFSET 0.000000 0.000000 0.000000
		CHANNELS 3 Zrotation Yrotation Xrotation
		JOINT LeftUpLeg
		{
			OFFSET 1.363060 -1.794630 0.839290
			CHANNELS 3 Zrotation Yrotation Xrotation
			JOINT LeftLeg
			{
				OFFSET 2.448110 -6.726130 0.000000
				CHANNELS 3 Zrotation Yrotation Xrotation
				JOINT LeftFoot
				{
					OFFSET 2.562200 -7.039590 0.000000
					CHANNELS 3 Zrotation Yrotation Xrotation
					JOINT LeftToeBase
					{
						OFFSET 0.157640 -0.433110 2.322550
						CHANNELS 3 Zrotation Yrotation Xrotation
						End Site
						{
							OFFSET 0.000000 0.000000 0.000000
						}
					}
				}
			}
		}
	}
	JOINT RHipJoint
	{
		OFFSET 0.000000 0.000000 0.000000
		CHANNELS 3 Zrotation Yrotation Xrotation
		JOINT RightUpLeg
		{
			OFFSET -1.305520 -1.794630 0.839290
			CHANNELS 3 Zrotation Yrotation Xrotation
			JOINT RightLeg
			{
				OFFSET -2.542530 -6.985550 0.000000
				CHANNELS 3 Zrotation Yrotation Xrotation
				JOINT RightFoot
				{
					OFFSET -2.568260 -7.056230 0.000000
					CHANNELS 3 Zrotation Yrotation Xrotation
					JOINT RightToeBase
					{
						OFFSET -0.164730 -0.452590 2.363150
						CHANNELS 3 Zrotation Yrotation Xrotation
						End Site
						{
							OFFSET 0.000000 0.000000 0.000000
						}
					}
				}
			}
		}
	}
	JOINT LowerBack
	{
		OFFSET 0.000000 0.000000 0.000000
		CHANNELS 3 Zrotation Yrotation Xrotation
		JOINT Spine
		{
			OFFSET 0.028270 2.035590 -0.193380
			CHANNELS 3 Zrotation Yrotation Xrotation
			JOINT Spine1
			{
				OFFSET 0.056720 2.048850 -0.042750
				CHANNELS 3 Zrotation Yrotation Xrotation
				JOINT Neck
				{
					OFFSET 0.000000 0.000000 0.000000
					CHANNELS 3 Zrotation Yrotation Xrotation
					JOINT Neck1
					{
						OFFSET -0.054170 1.746240 0.172020
						CHANNELS 3 Zrotation Yrotation Xrotation
						JOINT Head
						{
							OFFSET 0.104070 1.761360 -0.123970
							CHANNELS 3 Zrotation Yrotation Xrotation
							End Site
							{
								OFFSET 0.000000 0.000000 0.000000
							}
						}
					}
				}
				JOINT LeftShoulder
				{
					OFFSET 0.000000 0.000000 0.000000
					CHANNELS 3 Zrotation Yrotation Xrotation
					JOINT LeftArm
					{
						OFFSET 3.362410 1.200890 -0.311210
						CHANNELS 3 Zrotation Yrotation Xrotation
						JOINT LeftForeArm
						{
							OFFSET 4.983000 -0.000000 -0.000000
							CHANNELS 3 Zrotation Yrotation Xrotation
							JOINT LeftHand
							{
								OFFSET 3.483560 -0.000000 -0.000000
								CHANNELS 3 Zrotation Yrotation Xrotation
								JOINT LeftFingerBase
								{
									OFFSET 0.000000 0.000000 0.000000
									CHANNELS 3 Zrotation Yrotation Xrotation
									JOINT LeftHandIndex1
									{
										OFFSET 0.715260 -0.000000 -0.000000
										CHANNELS 3 Zrotation Yrotation Xrotation
										End Site
										{
											OFFSET 0.000000 0.000000 0.000000
										}
									}
								}
								JOINT LThumb
								{
									OFFSET 0.000000 0.000000 0.000000
									CHANNELS 3 Zrotation Yrotation Xrotation
									End Site
									{
										OFFSET 0.000000 0.000000 0.000000
									}
								}
							}
						}
					}
				}
				JOINT RightShoulder
				{
					OFFSET 0.000000 0.000000 0.000000
					CHANNELS 3 Zrotation Yrotation Xrotation
					JOINT RightArm
					{
						OFFSET -3.136600 1.374050 -0.404650
						CHANNELS 3 Zrotation Yrotation Xrotation
						JOINT RightForeArm
						{
							OFFSET -5.241900 -0.000000 -0.000000
							CHANNELS 3 Zrotation Yrotation Xrotation
							JOINT RightHand
							{
								OFFSET -3.444170 -0.000000 -0.000000
								CHANNELS 3 Zrotation Yrotation Xrotation
								JOINT RightFingerBase
								{
									OFFSET 0.000000 0.000000 0.000000
									CHANNELS 3 Zrotation Yrotation Xrotation
									JOINT RightHandIndex1
									{
										OFFSET -0.622530 -0.000000 -0.000000
										CHANNELS 3 Zrotation Yrotation Xrotation
										End Site
										{
											OFFSET 0.000000 0.000000 0.000000
										}
									}
								}
								JOINT RThumb
								{
									OFFSET 0.000000 0.000000 0.000000
									CHANNELS 3 Zrotation Yrotation Xrotation
									End Site
									{
										OFFSET 0.000000 0.000000 0.000000
									}
								}
							}
						}
					}
				}
			}
		}
	}
}
MOTION
Frames: 4
Frame Time: 0.008333
0.288071 17.875623 -13.981939 -6.707706 -2.199203 1.317488 0.825348 4.502503 2.837344 -8.579065 -11.855550 -32.141508 5.325402 14.161749 45.159699 -0.348047 2.405789 6.853290 0.062300 -1.610800 -4.431200 1.398441 -5.144595 5.079782 30.829119 10.553039 -5.084618 -1.407435 -6.169851 25.396840 1.958835 -7.651078 -5.221067 -0.118200 -2.216700 6.104800 3.580601 1.054779 6.872594 5.494626 1.936420 4.820665 -0.615675 0.857990 -9.264085 -5.632139 -4.542824 -15.824797 2.792713 -4.996233 19.391090 -0.270300 -2.117400 9.173500 -7.175661 2.994843 -1.231888 -82.797191 3.350957 18.300015 11.790799 -19.933669 -2.103577 -0.362836 -0.461012 -6.510589 29.232526 9.283656 5.489900 -7.125000 0.000000 0.000000 2.369900 41.120100 -0.226900 10.969387 -1.844435 -2.288666 73.269555 5.246230 17.124987 -12.151792 24.487006 -3.041363 1.022137 -0.187485 0.664163 -20.015770 21.042120 -7.878600 7.125000 0.000000 0.000000 4.813200 -7.598500 4.149600
0.293427 17.865692 -13.890555 -6.843202 -2.259223 1.426142 0.770381 4.480406 2.805683 -8.322135 -11.812853 -32.099637 4.912425 13.824727 43.676534 -0.422947 2.833794 7.237937 0.037967 -1.205212 -3.314178 1.417324 -5.141931 5.106465 30.933527 10.458842 -4.796256 -1.371536 -6.097002 25.207185 1.915184 -7.535012 -5.359458 -0.117247 -2.207561 6.079570 3.799546 1.088645 6.826634 5.455466 2.001525 4.860472 -0.751868 0.884813 -9.201380 -5.620346 -4.567003 -16.111149 2.856879 -5.008039 19.490635 -0.258021 -2.110896 9.253115 -7.172936 3.006799 -1.236958 -82.760508 3.319444 18.091637 11.909365 -20.121936 -2.149341 -0.369831 -0.452023 -5.647110 29.407975 9.083387 5.414602 -7.125000 0.000000 0.000000 2.534625 40.905644 -0.256784 10.961726 -1.827065 -2.274232 73.237425 5.592092 17.343413 -12.262204 24.639287 -3.090568 1.017593 -0.183284 0.522259 -19.965808 21.017092 -7.847371 7.125000 0.000000 0.000000 4.846055 -7.633598 4.174718
0.298735 17.858503 -13.799388 -6.954212 -2.286745 1.544246 0.710188 4.456822 2.772467 -8.078607 -11.828430 -32.041105 4.489687 13.467606 42.152613 -0.488982 3.212410 7.543299 0.022977 -0.959208 -2.636634 1.439079 -5.139642 5.132873 31.010901 10.358268 -4.527172 -1.334339 -6.023813 25.009943 1.891634 -7.475540 -5.475903 -0.110785 -2.139597 5.891818 3.982279 1.112351 6.792601 5.415030 2.050309 4.880624 -0.864867 0.904193 -9.159912 -5.595817 -4.602143 -16.409292 2.896236 -5.032900 19.620079 -0.256445 -2.111515 9.342777 -7.171242 3.020249 -1.240642 -82.730416 3.307471 17.944799 11.973626 -20.222829 -2.174229 -0.368654 -0.448008 -5.187011 29.281492 9.080836 5.379188 -7.125000 0.000000 0.000000 2.414300 40.887077 -0.251722 10.954969 -1.810260 -2.258829 73.199211 5.945647 17.559690 -12.356437 24.768356 -3.132298 1.013968 -0.178853 0.379436 -19.935517 20.983821 -7.821408 7.125000 0.000000 0.000000 4.865114 -7.674629 4.187326
0.303867 17.861236 -13.709008 -6.976562 -2.196607 1.696569 0.631077 4.427849 2.733622 -7.883605 -12.054995 -31.922247 4.031611 13.037713 40.481126 -0.522922 3.412202 7.561595 0.041815 -1.291013 -3.550301 1.471235 -5.138712 5.158288 30.990390 10.234605 -4.327889 -1.292438 -5.949395 24.785233 1.940870 -7.620982 -5.512890 -0.084377 -1.858646 5.115628 4.033904 1.099275 6.801747 5.369972 2.039995 4.829614 -0.893884 0.896626 -9.195335 -5.525169 -4.676971 -16.750130 2.845763 -5.105030 19.857782 -0.293617 -2.137923 9.468815 -7.173286 3.039113 -1.239312 -82.724192 3.366247 18.020775 11.841265 -20.007372 -2.123532 -0.337887 -0.461999 -6.187422 28.061810 9.794163 5.488182 -7.125000 0.000000 0.000000 1.261900 41.577766 -0.120133 10.951484 -1.795499 -2.239917 73.138964 6.327055 17.768184 -12.392094 24.813386 -3.146960 1.013670 -0.173590 0.233289 -19.976445 20.920706 -7.814511 7.125000 0.000000 0.000000 4.834221 -7.737144 4.154639
